<?xml version="1.0" encoding="UTF-8" standalone="no"?>
<!-- Created with Inkscape (http://www.inkscape.org/) -->

<svg
   width="40.745499mm"
   height="39.299534mm"
   viewBox="0 0 40.745499 39.299534"
   version="1.1"
   id="svg5"
   xml:space="preserve"
   inkscape:version="1.2.1 (9c6d41e410, 2022-07-14)"
   sodipodi:docname="icon.svg"
   xmlns:inkscape="http://www.inkscape.org/namespaces/inkscape"
   xmlns:sodipodi="http://sodipodi.sourceforge.net/DTD/sodipodi-0.dtd"
   xmlns="http://www.w3.org/2000/svg"
   xmlns:svg="http://www.w3.org/2000/svg"><sodipodi:namedview
     id="namedview7"
     pagecolor="#ffffff"
     bordercolor="#000000"
     borderopacity="0.25"
     inkscape:showpageshadow="2"
     inkscape:pageopacity="0.0"
     inkscape:pagecheckerboard="0"
     inkscape:deskcolor="#d1d1d1"
     inkscape:document-units="mm"
     showgrid="false"
     inkscape:zoom="7.319248"
     inkscape:cx="158.21297"
     inkscape:cy="71.113863"
     inkscape:window-width="3840"
     inkscape:window-height="2066"
     inkscape:window-x="-11"
     inkscape:window-y="-11"
     inkscape:window-maximized="1"
     inkscape:current-layer="layer1" /><defs
     id="defs2" /><g
     inkscape:label="Layer 1"
     inkscape:groupmode="layer"
     id="layer1"
     transform="translate(-33.127743,-24.162797)"><path
       d="m 53.500491,24.162797 c -11.251198,0 -20.372748,8.79785 -20.372748,19.649759 0,10.851915 9.12155,19.649774 20.372748,19.649774 11.251173,0 20.372749,-8.797859 20.372749,-19.649774 0,-10.851909 -9.121576,-19.649759 -20.372749,-19.649759 m 6.980378,29.152391 H 56.537372 L 54.157835,42.200621 53.463121,38.526113 52.768407,42.200621 50.38887,53.315188 H 46.564928 L 40.976673,34.309927 h 4.371998 l 2.602271,10.882698 0.566356,3.029343 0.567716,-2.966464 2.225384,-10.945577 h 4.344843 l 2.340832,10.881389 0.59962,3.030652 0.608475,-2.912754 2.626037,-10.999287 h 4.192718 l -5.542054,19.005261"
       fill="#1e88e5"
       id="path17"
       style="stroke-width:0.666932" /><path
       style="fill:#000000;stroke-width:0.136626"
       d="M 73.026628,148.36638 C 45.432089,146.95545 20.914605,131.53729 8.2986887,107.66133 4.6278605,100.71419 1.9689079,92.516786 0.82428465,84.618153 c -0.94306989,-6.507785 -0.94306989,-14.215997 0,-20.723782 C 3.6895693,44.122074 14.964248,26.052865 31.792408,14.263733 43.432209,6.1093559 56.757672,1.3838654 71.250489,0.27106302 75.399235,-0.04749022 81.98144,0.10833161 86.415981,0.63007872 106.52044,2.9954737 124.87358,12.99953 137.50771,28.479502 c 8.50124,10.416166 14.07398,23.210051 15.77356,36.212936 0.80617,6.167826 0.83075,12.625406 0.071,18.649457 -2.66513,21.131085 -14.84108,40.302065 -33.25794,52.364455 -2.80671,1.8383 -4.95145,3.05013 -8.4025,4.74763 -9.68908,4.76586 -19.832735,7.35103 -31.0683,7.91794 -3.051394,0.15395 -4.498034,0.1529 -7.596872,-0.006 z m -7.672435,-38.41656 c 0.04211,-0.16908 2.07633,-9.65453 4.520492,-21.078787 3.479816,-16.265009 6.172906,-29.477738 6.944913,-34.072845 0.01791,-0.10659 0.574361,2.690828 1.236563,6.216486 0.662202,3.525657 3.259805,16.01763 5.772451,27.759939 2.512646,11.742307 4.568447,21.380087 4.568447,21.417287 0,0.0372 3.388813,0.0517 7.530694,0.0323 l 7.530697,-0.0353 10.43563,-35.794086 c 5.7396,-19.686745 10.43563,-35.872304 10.43563,-35.967911 0,-0.139102 -1.58962,-0.166785 -7.95696,-0.138572 l -7.95695,0.03526 -4.94336,20.698848 C 100.75359,70.406805 98.017985,82.168168 97.393317,85.1588 l -1.135761,5.437513 -1.056605,-5.3692 C 94.619817,82.274071 92.13101,70.496866 89.670266,59.055567 l -4.474077,-20.802365 -8.270797,0.0352 -8.270798,0.0352 -3.98738,19.605839 c -2.193058,10.783212 -4.485388,22.188072 -5.094067,25.344134 -0.608678,3.156062 -1.174548,6.076444 -1.25749,6.489738 -0.150383,0.749358 -0.153559,0.736663 -1.145041,-4.576973 -0.822117,-4.405969 -1.853638,-8.929359 -5.958467,-26.128885 l -4.964229,-20.800469 -8.31596,-8.2e-4 -8.31596,-8.2e-4 0.06183,0.307409 c 0.03401,0.169075 4.784799,16.36951 10.557312,36.000966 l 10.495477,35.693559 h 7.273505 7.273504 l 0.07656,-0.30741 z"
       id="path253"
       transform="matrix(0.26458333,0,0,0.26458333,33.127743,24.162797)" /><path
       style="fill:#4b7fa4;stroke-width:0.136626;fill-opacity:1"
       d="M 71.592054,148.22848 C 52.601283,146.82128 34.964955,138.87245 21.877783,125.82184 11.681876,115.65442 4.9249189,103.48073 1.8636483,89.76332 -0.41312837,79.561188 -0.37679949,68.404213 1.9662262,58.260619 3.9327694,49.746918 7.4452983,41.628494 12.320384,34.329296 17.876686,26.010152 25.243597,18.669795 33.541697,13.184473 45.70371,5.1449764 59.645823,0.70558951 74.324575,0.19856664 76.950727,0.10785597 82.303138,0.28587561 85.049721,0.55528191 97.366888,1.7634459 109.63798,6.1024169 120.0943,12.946794 c 11.58597,7.58381 20.63771,17.853008 26.58291,30.158297 6.20045,12.8336 8.42446,26.949755 6.47527,41.09958 -1.79204,13.009113 -7.50671,25.875359 -16.08875,36.222879 -5.55449,6.69715 -12.30587,12.47463 -19.83857,16.97684 -2.26158,1.35171 -8.28936,4.31782 -10.89111,5.35922 -6.83323,2.73512 -13.492212,4.35307 -21.489268,5.22129 -2.918039,0.31681 -10.406862,0.45445 -13.252728,0.24358 z M 67.86601,98.5757 c 4.316646,-20.129003 7.875737,-37.302527 8.719501,-42.073805 l 0.240372,-1.359241 1.808964,9.0103 c 1.846238,9.195947 2.398656,11.835395 7.039906,33.636461 l 2.653993,12.466445 7.594168,6.8e-4 7.594166,6.8e-4 3.93249,-13.491822 c 13.94474,-47.84252 16.88014,-57.979315 16.88014,-58.292066 0,-0.19714 -0.76441,-0.218036 -7.9764,-0.218036 h -7.97641 l -0.16387,0.648974 c -0.38132,1.510145 -5.63055,23.545081 -7.31504,30.706706 -2.158393,9.176432 -3.396022,14.622416 -4.113057,18.098851 l -0.520482,2.523482 -0.514807,-2.591795 C 95.4665,86.216028 94.828125,83.082305 94.331035,80.677687 93.307374,75.725849 85.424155,38.861757 85.310328,38.494392 85.240837,38.270113 84.721052,38.255296 76.922585,38.255296 h -8.313661 l -0.138188,0.648974 c -0.955728,4.488429 -8.435248,41.589804 -9.385405,46.555329 -0.43137,2.25433 -0.82494,4.144958 -0.874602,4.201396 -0.04966,0.05644 -0.38282,-1.419123 -0.740351,-3.279025 -1.21473,-6.319121 -2.069606,-10.056512 -7.820675,-34.190816 -1.763788,-7.401717 -3.23951,-13.56526 -3.279385,-13.696762 -0.06802,-0.224324 -0.590357,-0.239096 -8.454781,-0.239096 h -8.382283 l 0.139383,0.512348 c 0.230494,0.847263 4.442111,15.21828 10.380386,35.420305 3.081314,10.482634 6.703678,22.80972 8.049697,27.393521 1.346021,4.58381 2.476689,8.41158 2.512597,8.50616 0.05159,0.13588 1.607348,0.16456 7.412768,0.13663 l 7.347483,-0.0353 z"
       id="path255"
       transform="matrix(0.26458333,0,0,0.26458333,33.127743,24.162797)" /></g></svg>
